<?xml version="1.0" encoding="utf-8"?>
<!-- Generator: Adobe Illustrator 16.0.0, SVG Export Plug-In . SVG Version: 6.00 Build 0)  -->
<!DOCTYPE svg PUBLIC "-//W3C//DTD SVG 1.1//EN" "http://www.w3.org/Graphics/SVG/1.1/DTD/svg11.dtd">
<svg version="1.1" xmlns="http://www.w3.org/2000/svg" xmlns:xlink="http://www.w3.org/1999/xlink" x="0px" y="0px"
	 width="335.986px" height="235.19px" viewBox="0 0 335.986 235.19" enable-background="new 0 0 335.986 235.19"
	 xml:space="preserve">
<g id="bg">
	<g>
		<g>
			<rect fill="#FFFFFF" width="335.987" height="235.191"/>
		</g>
	</g>
	<rect x="95.74" y="211.295" fill-rule="evenodd" clip-rule="evenodd" fill="none" width="142.914" height="11.535"/>
	<text transform="matrix(1 0 0 1 95.7397 214.4434)" opacity="0.5"><tspan x="0" y="0" fill="#868686" font-family="'MyriadPro-Regular'" font-size="4.4348">Lorem</tspan><tspan x="11.898" y="0" fill="#868686" font-family="'MyriadPro-Regular'" font-size="4.4348"> </tspan><tspan x="13.55" y="0" fill="#868686" font-family="'MyriadPro-Regular'" font-size="4.4348">ipsum</tspan><tspan x="25.009" y="0" fill="#868686" font-family="'MyriadPro-Regular'" font-size="4.4348"> </tspan><tspan x="26.661" y="0" fill="#868686" font-family="'MyriadPro-Regular'" font-size="4.4348">dolor</tspan><tspan x="36.527" y="0" fill="#868686" font-family="'MyriadPro-Regular'" font-size="4.4348"> </tspan><tspan x="38.179" y="0" fill="#868686" font-family="'MyriadPro-Regular'" font-size="4.4348">sit</tspan><tspan x="42.441" y="0" fill="#868686" font-family="'MyriadPro-Regular'" font-size="4.4348"> </tspan><tspan x="44.092" y="0" fill="#868686" font-family="'MyriadPro-Regular'" font-size="4.4348">amet,</tspan><tspan x="54.536" y="0" fill="#868686" font-family="'MyriadPro-Regular'" font-size="4.4348"> </tspan><tspan x="56.188" y="0" fill="#868686" font-family="'MyriadPro-Regular'" font-size="4.4348">consectetur</tspan><tspan x="78.086" y="0" fill="#868686" font-family="'MyriadPro-Regular'" font-size="4.4348"> </tspan><tspan x="79.737" y="0" fill="#868686" font-family="'MyriadPro-Regular'" font-size="4.4348">adipiscing</tspan><tspan x="98.696" y="0" fill="#868686" font-family="'MyriadPro-Regular'" font-size="4.4348"> </tspan><tspan x="100.347" y="0" fill="#868686" font-family="'MyriadPro-Regular'" font-size="4.4348">elit,</tspan><tspan x="107.039" y="0" fill="#868686" font-family="'MyriadPro-Regular'" font-size="4.4348"> </tspan><tspan x="108.69" y="0" fill="#868686" font-family="'MyriadPro-Regular'" font-size="4.4348">sed</tspan><tspan x="115.169" y="0" fill="#868686" font-family="'MyriadPro-Regular'" font-size="4.4348"> </tspan><tspan x="116.821" y="0" fill="#868686" font-family="'MyriadPro-Regular'" font-size="4.4348">do</tspan><tspan x="121.756" y="0" fill="#868686" font-family="'MyriadPro-Regular'" font-size="4.4348"> </tspan><tspan x="123.408" y="0" fill="#868686" font-family="'MyriadPro-Regular'" font-size="4.4348">eiusmod</tspan><tspan x="139.5" y="0" fill="#868686" font-family="'MyriadPro-Regular'" font-size="4.4348"> </tspan><tspan x="141.153" y="0" fill="#868686" font-family="'MyriadPro-Regular'" font-size="4.4348">s </tspan><tspan x="0" y="5.322" fill="#868686" font-family="'MyriadPro-Regular'" font-size="4.4348">nostrud</tspan><tspan x="14.515" y="5.322" fill="#868686" font-family="'MyriadPro-Regular'" font-size="4.4348"> </tspan><tspan x="15.331" y="5.322" fill="#868686" font-family="'MyriadPro-Regular'" font-size="4.4348">exercitation</tspan><tspan x="37.309" y="5.322" fill="#868686" font-family="'MyriadPro-Regular'" font-size="4.4348"> </tspan><tspan x="38.125" y="5.322" fill="#868686" font-family="'MyriadPro-Regular'" font-size="4.4348">ullamco</tspan><tspan x="52.919" y="5.322" fill="#868686" font-family="'MyriadPro-Regular'" font-size="4.4348"> </tspan><tspan x="53.736" y="5.322" fill="#868686" font-family="'MyriadPro-Regular'" font-size="4.4348">laboris</tspan><tspan x="66.122" y="5.322" fill="#868686" font-family="'MyriadPro-Regular'" font-size="4.4348"> </tspan><tspan x="66.938" y="5.322" fill="#868686" font-family="'MyriadPro-Regular'" font-size="4.4348">nisi</tspan><tspan x="73.231" y="5.322" fill="#868686" font-family="'MyriadPro-Regular'" font-size="4.4348"> </tspan><tspan x="74.047" y="5.322" fill="#868686" font-family="'MyriadPro-Regular'" font-size="4.4348">ut</tspan><tspan x="77.958" y="5.322" fill="#868686" font-family="'MyriadPro-Regular'" font-size="4.4348"> </tspan><tspan x="78.775" y="5.322" fill="#868686" font-family="'MyriadPro-Regular'" font-size="4.4348">aliquip</tspan><tspan x="91.498" y="5.322" fill="#868686" font-family="'MyriadPro-Regular'" font-size="4.4348"> </tspan><tspan x="92.314" y="5.322" fill="#868686" font-family="'MyriadPro-Regular'" font-size="4.4348">ex</tspan><tspan x="96.588" y="5.322" fill="#868686" font-family="'MyriadPro-Regular'" font-size="4.4348"> </tspan><tspan x="97.405" y="5.322" fill="#868686" font-family="'MyriadPro-Regular'" font-size="4.4348">ea</tspan><tspan x="101.764" y="5.322" fill="#868686" font-family="'MyriadPro-Regular'" font-size="4.4348"> </tspan><tspan x="102.581" y="5.322" fill="#868686" font-family="'MyriadPro-Regular'" font-size="4.4348">commodo</tspan><tspan x="121.77" y="5.322" fill="#868686" font-family="'MyriadPro-Regular'" font-size="4.4348"> </tspan><tspan x="122.586" y="5.322" fill="#868686" font-family="'MyriadPro-Regular'" font-size="4.4348">consequat. </tspan></text>
	<text transform="matrix(1 0 0 1 125.3872 201.6582)" fill="#0E3C54" font-family="'Roboto-Bold'" font-size="13.4789">LINEAR DATA</text>
	<path fill-rule="evenodd" clip-rule="evenodd" fill="#ECECEC" d="M105.14,76.488h126.988c4.262,0,7.744,3.482,7.744,7.736v85.604
		H97.396V84.225C97.396,79.971,100.879,76.488,105.14,76.488z"/>
	<path fill-rule="evenodd" clip-rule="evenodd" fill="#1A3E52" d="M105.14,78.879h126.988c2.945,0,5.354,2.413,5.354,5.346v83.215
		H99.788V84.225C99.788,81.292,102.192,78.879,105.14,78.879z"/>
	
		<rect x="104.676" y="83.408" fill-rule="evenodd" clip-rule="evenodd" fill="#7AEBD4" stroke="#000000" stroke-width="2" stroke-miterlimit="10" width="127.911" height="79.256"/>
	<path fill-rule="evenodd" clip-rule="evenodd" fill="#FFFFFF" stroke="#000000" stroke-width="2" stroke-miterlimit="10" d="
		M87.464,165.176h162.33c1.549,0,2.812,1.43,2.812,3.111v3.564c0,1.672-1.305,3.117-2.812,3.117H87.464
		c-1.507,0-2.815-1.412-2.815-3.117v-3.564C84.649,166.584,85.927,165.176,87.464,165.176z"/>
	<path fill-rule="evenodd" clip-rule="evenodd" fill="#FFFFFF" stroke="#000000" stroke-width="2" stroke-miterlimit="10" d="
		M155.345,165.598h26.566c0.254,0,0.461,0.537,0.461,1.17v1.34c0,0.627-0.213,1.172-0.461,1.172h-26.566
		c-0.247,0-0.461-0.531-0.461-1.172v-1.34C154.884,166.129,155.093,165.598,155.345,165.598z"/>
	<circle fill="#7AEBD4" stroke="#000000" stroke-width="2" stroke-miterlimit="10" cx="73.835" cy="49.21" r="21.654"/>
	<circle fill="#7AEBD4" stroke="#000000" stroke-width="2" stroke-miterlimit="10" cx="264.558" cy="49.21" r="21.654"/>
	<circle fill="#7AEBD4" stroke="#000000" stroke-width="2" stroke-miterlimit="10" cx="289.317" cy="117.277" r="21.654"/>
	<circle fill="#7AEBD4" stroke="#000000" stroke-width="2" stroke-miterlimit="10" cx="288.423" cy="180.609" r="21.654"/>
	<circle fill="#7AEBD4" stroke="#000000" stroke-width="2" stroke-miterlimit="10" cx="48.998" cy="117.277" r="21.654"/>
	<circle fill="#7AEBD4" stroke="#000000" stroke-width="2" stroke-miterlimit="10" cx="49.893" cy="180.609" r="21.654"/>
	<circle fill="#7AEBD4" stroke="#000000" stroke-width="2" stroke-miterlimit="10" cx="169.196" cy="35.443" r="21.655"/>
	<path fill="none" stroke="#0E3C54" stroke-width="2" stroke-miterlimit="10" stroke-dasharray="2" d="M190.851,35.451h15.334
		c0,0,6.381-0.521,6.381,6.38v35.697"/>
	<path fill="none" stroke="#0E3C54" stroke-width="2" stroke-miterlimit="10" stroke-dasharray="2" d="M251.532,104.503v5.334
		c0,0,0.521,6.379-6.381,6.379h-6.498"/>
	<path fill="none" stroke="#0E3C54" stroke-width="2" stroke-miterlimit="10" stroke-dasharray="2" d="M286.202,138.863v5.334
		c0,0,0.521,6.379-6.379,6.379h-41.951"/>
	<path fill="none" stroke="#0E3C54" stroke-width="2" stroke-miterlimit="10" stroke-dasharray="2" d="M277.437,67.23v17.999
		c0,0,0.521,6.38-6.381,6.38h-6.498v-0.318h-6.5c-6.902,0-6.379,6.38-6.379,6.38v5.334"/>
	<g>
		<g>
			
				<line fill="none" stroke="#0E3C54" stroke-width="2" stroke-miterlimit="10" x1="274.099" y1="196.404" x2="274.099" y2="197.404"/>
			<path fill="none" stroke="#0E3C54" stroke-width="2" stroke-miterlimit="10" stroke-dasharray="1.8282,1.8282" d="
				M274.099,199.232v2.506c0,0,0.521,6.381-6.381,6.381h-4.584"/>
			<polyline fill="none" stroke="#0E3C54" stroke-width="2" stroke-miterlimit="10" points="262.22,208.119 261.22,208.119 
				262.054,208.109 261.054,208.109 			"/>
			<path fill="none" stroke="#0E3C54" stroke-width="2" stroke-miterlimit="10" stroke-dasharray="2.057,2.057" d="M258.997,208.109
				h-2.277c0,0-6.381,0.521-6.381-6.379v-2.367l0.027-0.914v-6.5c0-6.9-6.379-6.379-6.379-6.379h-5.334l-1.258-0.018h-5.334
				c0,0-6.381,0.521-6.381-6.381v-1.75"/>
			
				<line fill="none" stroke="#0E3C54" stroke-width="2" stroke-miterlimit="10" x1="225.681" y1="176.393" x2="225.681" y2="175.393"/>
		</g>
	</g>
	<path fill="none" stroke="#0E3C54" stroke-width="2" stroke-miterlimit="10" stroke-dasharray="2" d="M85.159,104.503v5.334
		c0,0-0.521,6.379,6.38,6.379h6.499"/>
	<path fill="none" stroke="#0E3C54" stroke-width="2" stroke-miterlimit="10" stroke-dasharray="2" d="M50.488,138.863v5.334
		c0,0-0.521,6.379,6.38,6.379h41.95"/>
	<path fill="none" stroke="#0E3C54" stroke-width="2" stroke-miterlimit="10" stroke-dasharray="2" d="M59.255,67.23v17.999
		c0,0-0.521,6.38,6.38,6.38h6.499v-0.318h6.499c6.902,0,6.38,6.38,6.38,6.38v5.334"/>
	<g>
		<g>
			
				<line fill="none" stroke="#0E3C54" stroke-width="2" stroke-miterlimit="10" x1="62.592" y1="198.684" x2="62.592" y2="199.684"/>
			<path fill="none" stroke="#0E3C54" stroke-width="2" stroke-miterlimit="10" stroke-dasharray="1.9814,1.9814" d="
				M62.592,201.664v0.074c0,0-0.521,6.381,6.38,6.381h4.508"/>
			<polyline fill="none" stroke="#0E3C54" stroke-width="2" stroke-miterlimit="10" points="74.471,208.119 75.471,208.119 
				74.637,208.109 75.637,208.109 			"/>
			<path fill="none" stroke="#0E3C54" stroke-width="2" stroke-miterlimit="10" stroke-dasharray="2.057,2.057" d="M77.694,208.109
				h2.277c0,0,6.38,0.521,6.38-6.379v-2.367l-0.027-0.914v-6.5c0-6.9,6.38-6.379,6.38-6.379h5.334l1.257-0.018h5.334
				c0,0,6.38,0.521,6.38-6.381v-1.75"/>
			
				<line fill="none" stroke="#0E3C54" stroke-width="2" stroke-miterlimit="10" x1="111.009" y1="176.393" x2="111.009" y2="175.393"/>
		</g>
	</g>
	
		<path fill="#FFFFFF" stroke="#1D1D1B" stroke-width="2" stroke-linecap="round" stroke-linejoin="round" stroke-miterlimit="10" d="
		M108.291,56.481c0,1.312-1.062,2.375-2.376,2.375H67.871V26.759c0-1.315,1.065-2.378,2.376-2.378h10.999
		c0.628,0,1.234,0.251,1.68,0.697l3.362,3.362c0.446,0.443,1.049,0.696,1.68,0.696h17.948c1.313,0,2.376,1.063,2.376,2.378V56.481z"
		/>
	
		<path fill="#FFFFFF" stroke="#1D1D1B" stroke-width="2" stroke-linecap="round" stroke-linejoin="round" stroke-miterlimit="10" d="
		M108.75,58.122c-0.366,0.9-1.254,1.492-2.246,1.492H66.996l9.074-22.279c0.362-0.904,1.255-1.496,2.247-1.496h35.932
		c0.805,0,1.553,0.391,2.002,1.043c0.453,0.654,0.543,1.485,0.246,2.219L108.75,58.122z"/>
	<line fill="#FFFFFF" stroke="#3D3437" stroke-width="2" stroke-miterlimit="10" x1="22.904" y1="26.659" x2="44.097" y2="26.659"/>
	<line fill="#FFFFFF" stroke="#3D3437" stroke-width="2" stroke-miterlimit="10" x1="37.166" y1="22.104" x2="51.029" y2="22.104"/>
	
		<line fill="#FFFFFF" stroke="#3D3437" stroke-width="2" stroke-miterlimit="10" x1="222.974" y1="21.528" x2="236.36" y2="21.528"/>
	
		<line fill="#FFFFFF" stroke="#3D3437" stroke-width="2" stroke-miterlimit="10" x1="298.526" y1="75.692" x2="311.913" y2="75.692"/>
	
		<line fill="#FFFFFF" stroke="#3D3437" stroke-width="2" stroke-miterlimit="10" x1="231.983" y1="16.973" x2="240.739" y2="16.973"/>
	
		<line fill="#FFFFFF" stroke="#3D3437" stroke-width="2" stroke-miterlimit="10" x1="245.694" y1="137.561" x2="259.081" y2="137.561"/>
	
		<line fill="#FFFFFF" stroke="#3D3437" stroke-width="2" stroke-miterlimit="10" x1="254.702" y1="133.004" x2="263.46" y2="133.004"/>
	
		<line fill="#FFFFFF" stroke="#3D3437" stroke-width="2" stroke-miterlimit="10" x1="125.737" y1="70.863" x2="141.046" y2="70.863"/>
	
		<line fill="#FFFFFF" stroke="#3D3437" stroke-width="2" stroke-miterlimit="10" x1="289.909" y1="68.992" x2="305.218" y2="68.992"/>
	<line fill="#FFFFFF" stroke="#3D3437" stroke-width="2" stroke-miterlimit="10" x1="27.897" y1="65.928" x2="43.206" y2="65.928"/>
	
		<line fill="#FFFFFF" stroke="#3D3437" stroke-width="2" stroke-miterlimit="10" x1="145.899" y1="183.865" x2="161.208" y2="183.865"/>
	
		<line fill="#FFFFFF" stroke="#3D3437" stroke-width="2" stroke-miterlimit="10" x1="171.585" y1="183.867" x2="211.058" y2="183.867"/>
	
		<line fill="#FFFFFF" stroke="#3D3437" stroke-width="2" stroke-miterlimit="10" x1="103.318" y1="16.326" x2="133.392" y2="16.326"/>
	<circle fill="none" stroke="#1D1D1B" stroke-width="2" stroke-miterlimit="10" cx="168.629" cy="121.189" r="26.465"/>
	<path fill="#FFFFFF" stroke="#1D1D1B" stroke-width="2" stroke-miterlimit="10" d="M185.831,121.188
		c0-10.188-8.733-18.26-19.188-17.068c-7.939,0.925-14.29,7.277-15.083,15.217c-0.663,6.088,1.851,11.512,6.087,14.953
		c1.851,1.586,3.042,3.838,3.042,6.352v0.396h15.879v-0.133c0-2.381,1.059-4.764,2.912-6.352
		C183.317,131.379,185.831,126.615,185.831,121.188z"/>
	<circle fill="#FFFFFF" stroke="#1D1D1B" stroke-width="2" stroke-miterlimit="10" cx="168.629" cy="150.861" r="4.531"/>
	<path fill="#FFFFFF" stroke="#1D1D1B" stroke-width="2" stroke-miterlimit="10" d="M160.688,139.715v3.572v2.645v0.398
		c0,2.912,2.383,5.293,5.293,5.293h5.295c1.889,0,3.542-1.012,4.479-2.512l0.02-0.002c0.339-0.508,0.557-1.076,0.678-1.693
		c0.004-0.016,0.007-0.029,0.01-0.045c0.062-0.334,0.105-0.676,0.105-1.041v-2.646v-2.646v-1.322H160.688z"/>
	<g>
		
			<line fill="#FFFFFF" stroke="#0E3C54" stroke-width="2" stroke-miterlimit="10" x1="305.903" y1="22.93" x2="305.903" y2="26.249"/>
		
			<line fill="#FFFFFF" stroke="#0E3C54" stroke-width="2" stroke-miterlimit="10" x1="300.968" y1="27.576" x2="304.286" y2="27.576"/>
		
			<line fill="#FFFFFF" stroke="#0E3C54" stroke-width="2" stroke-miterlimit="10" x1="305.903" y1="32.382" x2="305.903" y2="29.063"/>
		
			<line fill="#FFFFFF" stroke="#0E3C54" stroke-width="2" stroke-miterlimit="10" x1="310.841" y1="27.735" x2="307.522" y2="27.735"/>
	</g>
	<g>
		
			<line fill="#FFFFFF" stroke="#0E3C54" stroke-width="2" stroke-miterlimit="10" x1="29.997" y1="42.443" x2="29.997" y2="45.763"/>
		<line fill="#FFFFFF" stroke="#0E3C54" stroke-width="2" stroke-miterlimit="10" x1="25.06" y1="47.09" x2="28.379" y2="47.09"/>
		
			<line fill="#FFFFFF" stroke="#0E3C54" stroke-width="2" stroke-miterlimit="10" x1="29.997" y1="51.896" x2="29.997" y2="48.577"/>
		
			<line fill="#FFFFFF" stroke="#0E3C54" stroke-width="2" stroke-miterlimit="10" x1="34.934" y1="47.249" x2="31.614" y2="47.249"/>
	</g>
	<g>
		
			<line fill="#FFFFFF" stroke="#0E3C54" stroke-width="2" stroke-miterlimit="10" x1="126.699" y1="97.176" x2="126.699" y2="100.495"/>
		
			<line fill="#FFFFFF" stroke="#0E3C54" stroke-width="2" stroke-miterlimit="10" x1="121.762" y1="101.822" x2="125.082" y2="101.822"/>
		
			<line fill="#FFFFFF" stroke="#0E3C54" stroke-width="2" stroke-miterlimit="10" x1="126.699" y1="106.628" x2="126.699" y2="103.31"/>
		
			<line fill="#FFFFFF" stroke="#0E3C54" stroke-width="2" stroke-miterlimit="10" x1="131.636" y1="101.981" x2="128.317" y2="101.981"/>
	</g>
	<g>
		
			<line fill="#FFFFFF" stroke="#0E3C54" stroke-width="2" stroke-miterlimit="10" x1="213.823" y1="136.756" x2="213.823" y2="140.076"/>
		
			<line fill="#FFFFFF" stroke="#0E3C54" stroke-width="2" stroke-miterlimit="10" x1="208.886" y1="141.402" x2="212.206" y2="141.402"/>
		
			<line fill="#FFFFFF" stroke="#0E3C54" stroke-width="2" stroke-miterlimit="10" x1="213.823" y1="146.209" x2="213.823" y2="142.891"/>
		
			<line fill="#FFFFFF" stroke="#0E3C54" stroke-width="2" stroke-miterlimit="10" x1="218.761" y1="141.562" x2="215.44" y2="141.562"/>
	</g>
	
		<path fill="#FFFFFF" stroke="#1D1D1B" stroke-width="2" stroke-linecap="round" stroke-linejoin="round" stroke-miterlimit="10" d="
		M290.284,33.954l-3.029,0.524c-0.703,0.121-1.535-0.301-1.85-0.938l-2.482-3.934c-0.438-0.557-0.465-1.49-0.057-2.069l1.771-2.508
		c0.406-0.586,0.266-1.39-0.312-1.802l-2.887-2.035c-0.584-0.412-1.398-0.27-1.805,0.312l-1.77,2.51
		c-0.408,0.579-1.291,0.874-1.965,0.64l-4.541-1.008c-0.705-0.083-1.383-0.729-1.504-1.428l-0.525-3.035
		c-0.121-0.701-0.795-1.17-1.492-1.049l-3.479,0.603c-0.705,0.121-1.176,0.789-1.055,1.49l0.525,3.034
		c0.121,0.699-0.303,1.535-0.941,1.852l-3.934,2.476c-0.553,0.446-1.488,0.467-2.066,0.06l-2.514-1.769
		c-0.58-0.412-1.387-0.272-1.797,0.312l-2.037,2.887c-0.406,0.584-0.268,1.387,0.312,1.802l2.514,1.766
		c0.578,0.41,0.861,1.298,0.631,1.971l-1.008,4.539c-0.082,0.706-0.723,1.384-1.428,1.505l-3.029,0.524
		c-0.697,0.121-1.168,0.799-1.047,1.501l0.602,3.474c0.121,0.7,0.793,1.18,1.49,1.059l3.029-0.525
		c0.705-0.122,1.535,0.295,1.85,0.936l2.477,3.936c0.447,0.555,0.475,1.485,0.066,2.062l-1.773,2.513
		c-0.406,0.578-0.266,1.391,0.312,1.805l2.891,2.035c0.582,0.407,1.389,0.268,1.797-0.311l1.771-2.515
		c0.408-0.579,1.295-0.873,1.971-0.639l4.533,1.011c0.707,0.081,1.389,0.721,1.51,1.423l0.525,3.033
		c0.119,0.697,0.789,1.175,1.494,1.052l3.479-0.602c0.697-0.121,1.174-0.797,1.053-1.494l-0.525-3.032
		c-0.121-0.702,0.299-1.534,0.936-1.847l3.938-2.479c0.551-0.446,1.486-0.468,2.064-0.061l2.514,1.773
		c0.578,0.41,1.393,0.268,1.803-0.312l2.035-2.889c0.406-0.585,0.266-1.397-0.312-1.804l-2.518-1.771
		c-0.578-0.406-0.861-1.295-0.637-1.963l1.014-4.54c0.082-0.709,0.725-1.382,1.428-1.503l3.029-0.524
		c0.697-0.121,1.174-0.798,1.053-1.499l-0.602-3.473C291.657,34.312,290.981,33.833,290.284,33.954z M270.88,46.077
		c-3.035,0.525-5.914-1.512-6.439-4.545s1.502-5.916,4.537-6.441c3.039-0.526,5.922,1.506,6.447,4.539
		C275.95,42.664,273.919,45.552,270.88,46.077z"/>
	
		<path fill="#FFFFFF" stroke="#1D1D1B" stroke-width="2" stroke-linecap="round" stroke-linejoin="round" stroke-miterlimit="10" d="
		M24.145,125.994V91.068c0-2.744,2.245-4.99,4.99-4.99h19.963c2.745,0,4.99,2.246,4.99,4.99v34.926c0,2.744-2.245,4.99-4.99,4.99
		H29.135C26.39,130.984,24.145,128.738,24.145,125.994z"/>
	
		<path fill="#FFFFFF" stroke="#1D1D1B" stroke-width="2" stroke-linecap="round" stroke-linejoin="round" stroke-miterlimit="10" d="
		M49.098,89.821H29.135c-0.749,0-1.247,0.5-1.247,1.247v31.184c0,0.746,0.499,1.246,1.247,1.246h19.963
		c0.749,0,1.247-0.5,1.247-1.246V91.068C50.344,90.321,49.846,89.821,49.098,89.821z"/>
	
		<circle fill="#FFFFFF" stroke="#1D1D1B" stroke-width="2" stroke-linecap="round" stroke-linejoin="round" stroke-miterlimit="10" cx="39.116" cy="127.242" r="1.871"/>
	<path fill="#FFFFFF" stroke="#1D1D1B" stroke-width="2" stroke-miterlimit="10" d="M184.204,58.585
		c0,1.275-1.035,2.311-2.311,2.311h-38.235c-1.275,0-2.311-1.035-2.311-2.311V33.876c0-1.275,1.035-2.311,2.311-2.311h38.235
		c1.275,0,2.311,1.035,2.311,2.311V58.585z"/>
	<circle fill="#FFFFFF" stroke="#1D1D1B" stroke-width="2" stroke-miterlimit="10" cx="147.319" cy="37.004" r="1.996"/>
	<path fill="#FFFFFF" stroke="#1D1D1B" stroke-width="2" stroke-miterlimit="10" d="M171.997,30.938
		c0,0.347-0.349,0.627-0.779,0.627h-16.884c-0.431,0-0.78-0.28-0.78-0.627v-5.491c0-0.347,0.349-0.627,0.78-0.627h16.884
		c0.431,0,0.779,0.28,0.779,0.627V30.938z"/>
	<path fill="#FFFFFF" stroke="#1D1D1B" stroke-width="2" stroke-miterlimit="10" d="M180.924,31.093
		c0,0.153-0.169,0.276-0.378,0.276h-8.171c-0.208,0-0.378-0.123-0.378-0.276v-2.427c0-0.154,0.17-0.276,0.378-0.276h8.171
		c0.209,0,0.378,0.122,0.378,0.276V31.093z"/>
	<circle fill="#FFFFFF" stroke="#1D1D1B" stroke-width="2" stroke-miterlimit="10" cx="162.775" cy="46.23" r="11.275"/>
	<g>
		
			<path fill="#FFFFFF" stroke="#1D1D1B" stroke-width="2" stroke-linecap="round" stroke-linejoin="round" stroke-miterlimit="10" d="
			M316.167,101.902h-32.668v24.502c0,2.244,1.84,4.082,4.084,4.082h24.5c2.246,0,4.084-1.838,4.084-4.082V101.902z"/>
		
			<path fill="#FFFFFF" stroke="#1D1D1B" stroke-width="2" stroke-linecap="round" stroke-linejoin="round" stroke-miterlimit="10" d="
			M312.083,89.653h-24.5c-2.244,0-4.084,1.837-4.084,4.082v9.189h32.668v-9.189C316.167,91.49,314.329,89.653,312.083,89.653z"/>
		
			<path fill="#FFFFFF" stroke="#1D1D1B" stroke-width="2" stroke-linecap="round" stroke-linejoin="round" stroke-miterlimit="10" d="
			M312.083,99.861h-24.5c-0.611,0-1.02-0.408-1.02-1.021v-5.105c0-0.611,0.408-1.021,1.02-1.021h24.5
			c0.613,0,1.021,0.409,1.021,1.021v5.105C313.104,99.453,312.696,99.861,312.083,99.861z"/>
		<g>
			
				<path fill="#FFFFFF" stroke="#1D1D1B" stroke-width="2" stroke-linecap="round" stroke-linejoin="round" stroke-miterlimit="10" d="
				M292.089,111.404h-4.145c-0.828,0-1.381-0.523-1.381-1.306v-2.61c0-0.782,0.553-1.308,1.381-1.308h4.145
				c0.828,0,1.383,0.525,1.383,1.308v2.61C293.472,110.881,292.917,111.404,292.089,111.404z"/>
			
				<path fill="#FFFFFF" stroke="#1D1D1B" stroke-width="2" stroke-linecap="round" stroke-linejoin="round" stroke-miterlimit="10" d="
				M301.759,111.404h-4.143c-0.83,0-1.383-0.523-1.383-1.306v-2.61c0-0.782,0.553-1.308,1.383-1.308h4.143
				c0.83,0,1.383,0.525,1.383,1.308v2.61C303.142,110.881,302.589,111.404,301.759,111.404z"/>
			
				<path fill="#FFFFFF" stroke="#1D1D1B" stroke-width="2" stroke-linecap="round" stroke-linejoin="round" stroke-miterlimit="10" d="
				M311.431,111.404h-4.146c-0.826,0-1.381-0.523-1.381-1.306v-2.61c0-0.782,0.555-1.308,1.381-1.308h4.146
				c0.83,0,1.381,0.525,1.381,1.308v2.61C312.812,110.881,312.261,111.404,311.431,111.404z"/>
			
				<path fill="#FFFFFF" stroke="#1D1D1B" stroke-width="2" stroke-linecap="round" stroke-linejoin="round" stroke-miterlimit="10" d="
				M292.089,119.238h-4.145c-0.828,0-1.381-0.524-1.381-1.307v-2.611c0-0.783,0.553-1.305,1.381-1.305h4.145
				c0.828,0,1.383,0.521,1.383,1.305v2.611C293.472,118.714,292.917,119.238,292.089,119.238z"/>
			
				<path fill="#FFFFFF" stroke="#1D1D1B" stroke-width="2" stroke-linecap="round" stroke-linejoin="round" stroke-miterlimit="10" d="
				M301.759,119.238h-4.143c-0.83,0-1.383-0.524-1.383-1.307v-2.611c0-0.783,0.553-1.305,1.383-1.305h4.143
				c0.83,0,1.383,0.521,1.383,1.305v2.611C303.142,118.714,302.589,119.238,301.759,119.238z"/>
			
				<path fill="#FFFFFF" stroke="#1D1D1B" stroke-width="2" stroke-linecap="round" stroke-linejoin="round" stroke-miterlimit="10" d="
				M311.431,119.238h-4.146c-0.826,0-1.381-0.524-1.381-1.307v-2.611c0-0.783,0.555-1.305,1.381-1.305h4.146
				c0.83,0,1.381,0.521,1.381,1.305v2.611C312.812,118.714,312.261,119.238,311.431,119.238z"/>
			
				<path fill="#FFFFFF" stroke="#1D1D1B" stroke-width="2" stroke-linecap="round" stroke-linejoin="round" stroke-miterlimit="10" d="
				M292.089,127.07h-4.145c-0.828,0-1.381-0.521-1.381-1.307v-2.609c0-0.783,0.553-1.307,1.381-1.307h4.145
				c0.828,0,1.383,0.523,1.383,1.307v2.609C293.472,126.549,292.917,127.07,292.089,127.07z"/>
			
				<path fill="#FFFFFF" stroke="#1D1D1B" stroke-width="2" stroke-linecap="round" stroke-linejoin="round" stroke-miterlimit="10" d="
				M301.759,127.07h-4.143c-0.83,0-1.383-0.521-1.383-1.307v-2.609c0-0.783,0.553-1.307,1.383-1.307h4.143
				c0.83,0,1.383,0.523,1.383,1.307v2.609C303.142,126.549,302.589,127.07,301.759,127.07z"/>
			
				<path fill="#FFFFFF" stroke="#1D1D1B" stroke-width="2" stroke-linecap="round" stroke-linejoin="round" stroke-miterlimit="10" d="
				M311.431,127.07h-4.146c-0.826,0-1.381-0.521-1.381-1.307v-2.609c0-0.783,0.555-1.307,1.381-1.307h4.146
				c0.83,0,1.381,0.523,1.381,1.307v2.609C312.812,126.549,312.261,127.07,311.431,127.07z"/>
		</g>
	</g>
	<g>
		<g>
			<g>
				
					<rect x="22.836" y="169.52" fill="#FFFFFF" stroke="#1D1D1B" stroke-width="2" stroke-linecap="round" stroke-linejoin="round" stroke-miterlimit="10" width="32.816" height="37.02"/>
				
					<path fill="#FFFFFF" stroke="#1D1D1B" stroke-width="2" stroke-linecap="round" stroke-linejoin="round" stroke-miterlimit="10" d="
					M55.872,206.777H22.616v-37.498h33.256V206.777z M23.056,206.299h32.376v-36.541H23.056V206.299z"/>
			</g>
			<g>
				
					<rect x="22.836" y="169.52" fill="#FFFFFF" stroke="#1D1D1B" stroke-width="2" stroke-linecap="round" stroke-linejoin="round" stroke-miterlimit="10" width="32.816" height="7.656"/>
				
					<path fill="#FFFFFF" stroke="#1D1D1B" stroke-width="2" stroke-linecap="round" stroke-linejoin="round" stroke-miterlimit="10" d="
					M55.872,177.416H22.616v-8.137h33.256V177.416z M23.056,176.939h32.376v-7.182H23.056V176.939z"/>
			</g>
		</g>
		<g>
			
				<rect x="27.778" y="186.982" fill="#FFFFFF" stroke="#1D1D1B" stroke-width="2" stroke-linecap="round" stroke-linejoin="round" stroke-miterlimit="10" width="22.932" height="6.375"/>
		</g>
		
			<line fill="#FFFFFF" stroke="#1D1D1B" stroke-width="2" stroke-linecap="round" stroke-linejoin="round" stroke-miterlimit="10" x1="27.778" y1="173.348" x2="42.245" y2="173.348"/>
		
			<line fill="#FFFFFF" stroke="#1D1D1B" stroke-width="2" stroke-linecap="round" stroke-linejoin="round" stroke-miterlimit="10" x1="47.512" y1="173.348" x2="50.71" y2="173.348"/>
		
			<line fill="#FFFFFF" stroke="#1D1D1B" stroke-width="2" stroke-linecap="round" stroke-linejoin="round" stroke-miterlimit="10" x1="27.778" y1="198.254" x2="50.499" y2="198.254"/>
	</g>
	<g>
		<g>
			
				<rect x="281.503" y="169.52" fill="#FFFFFF" stroke="#1D1D1B" stroke-width="2" stroke-linecap="round" stroke-linejoin="round" stroke-miterlimit="10" width="32.816" height="37.02"/>
			
				<path fill="#FFFFFF" stroke="#1D1D1B" stroke-width="2" stroke-linecap="round" stroke-linejoin="round" stroke-miterlimit="10" d="
				M314.538,206.777h-33.256v-37.498h33.256V206.777z M281.722,206.299h32.377v-36.541h-32.377V206.299z"/>
		</g>
		<g>
			
				<rect x="281.503" y="169.52" fill="#FFFFFF" stroke="#1D1D1B" stroke-width="2" stroke-linecap="round" stroke-linejoin="round" stroke-miterlimit="10" width="32.816" height="7.656"/>
			
				<path fill="#FFFFFF" stroke="#1D1D1B" stroke-width="2" stroke-linecap="round" stroke-linejoin="round" stroke-miterlimit="10" d="
				M314.538,177.416h-33.256v-8.137h33.256V177.416z M281.722,176.939h32.377v-7.182h-32.377V176.939z"/>
		</g>
	</g>
	
		<line fill="#FFFFFF" stroke="#1D1D1B" stroke-width="2" stroke-linecap="round" stroke-linejoin="round" stroke-miterlimit="10" x1="286.444" y1="173.348" x2="300.911" y2="173.348"/>
	
		<line fill="#FFFFFF" stroke="#1D1D1B" stroke-width="2" stroke-linecap="round" stroke-linejoin="round" stroke-miterlimit="10" x1="286.444" y1="196.143" x2="300.911" y2="196.143"/>
	
		<line fill="#FFFFFF" stroke="#1D1D1B" stroke-width="2" stroke-linecap="round" stroke-linejoin="round" stroke-miterlimit="10" x1="286.444" y1="200.658" x2="309.358" y2="200.658"/>
	
		<line fill="#FFFFFF" stroke="#1D1D1B" stroke-width="2" stroke-linecap="round" stroke-linejoin="round" stroke-miterlimit="10" x1="306.179" y1="173.348" x2="309.376" y2="173.348"/>
	
		<rect x="286.212" y="181.609" fill="#FFFFFF" stroke="#1D1D1B" stroke-width="2" stroke-linecap="round" stroke-linejoin="round" stroke-miterlimit="10" width="9.66" height="9.66"/>
	
		<rect x="300.007" y="181.609" fill="#FFFFFF" stroke="#1D1D1B" stroke-width="2" stroke-linecap="round" stroke-linejoin="round" stroke-miterlimit="10" width="9.66" height="9.66"/>
	<polyline fill="#FFFFFF" stroke="#1D1D1B" stroke-width="2" stroke-linejoin="round" stroke-miterlimit="10" points="
		166.219,138.734 166.219,123.186 161.604,117.751 175.591,117.751 170.997,123.158 170.997,138.734 	"/>
</g>
<g id="text">
</g>
<g id="Layer_1">
</g>
<g id="Layer_3">
</g>
<g id="Layer_4">
</g>
<g id="Layer_5">
</g>
<g id="Layer_6">
</g>
<g id="Layer_7">
</g>
</svg>
